<?xml version="1.0" encoding="utf-8" standalone="no"?>
<!DOCTYPE svg PUBLIC "-//W3C//DTD SVG 1.1//EN"
  "http://www.w3.org/Graphics/SVG/1.1/DTD/svg11.dtd">
<svg xmlns:xlink="http://www.w3.org/1999/xlink" width="432pt" height="288pt" viewBox="0 0 432 288" xmlns="http://www.w3.org/2000/svg" version="1.1">
 <metadata>
  <rdf:RDF xmlns:dc="http://purl.org/dc/elements/1.1/" xmlns:cc="http://creativecommons.org/ns#" xmlns:rdf="http://www.w3.org/1999/02/22-rdf-syntax-ns#">
   <cc:Work>
    <dc:type rdf:resource="http://purl.org/dc/dcmitype/StillImage"/>
    <dc:date>2025-05-07T14:57:55.154685</dc:date>
    <dc:format>image/svg+xml</dc:format>
    <dc:creator>
     <cc:Agent>
      <dc:title>Matplotlib v3.9.2, https://matplotlib.org/</dc:title>
     </cc:Agent>
    </dc:creator>
   </cc:Work>
  </rdf:RDF>
 </metadata>
 <defs>
  <style type="text/css">*{stroke-linejoin: round; stroke-linecap: butt}</style>
 </defs>
 <g id="figure_1">
  <g id="patch_1">
   <path d="M 0 288 
L 432 288 
L 432 0 
L 0 0 
z
" style="fill: #ffffff"/>
  </g>
  <g id="axes_1">
   <g id="patch_2">
    <path d="M 55.779096 246.04 
L 411.615 246.04 
L 411.615 10.8 
L 55.779096 10.8 
z
" style="fill: #ffffff"/>
   </g>
   <g id="matplotlib.axis_1">
    <g id="xtick_1">
     <g id="line2d_1">
      <path d="M 55.779096 246.04 
L 55.779096 10.8 
" clip-path="url(#p70e45d0d2c)" style="fill: none; stroke: #b0b0b0; stroke-width: 0.8; stroke-linecap: square"/>
     </g>
     <g id="line2d_2">
      <defs>
       <path id="m545b748996" d="M 0 0 
L 0 3.5 
" style="stroke: #000000; stroke-width: 0.8"/>
      </defs>
      <g>
       <use xlink:href="#m545b748996" x="55.779096" y="246.04" style="stroke: #000000; stroke-width: 0.8"/>
      </g>
     </g>
     <g id="text_1">
      <!-- 0 -->
      <g transform="translate(52.597846 260.638438) scale(0.1 -0.1)">
       <defs>
        <path id="DejaVuSans-30" d="M 2034 4250 
Q 1547 4250 1301 3770 
Q 1056 3291 1056 2328 
Q 1056 1369 1301 889 
Q 1547 409 2034 409 
Q 2525 409 2770 889 
Q 3016 1369 3016 2328 
Q 3016 3291 2770 3770 
Q 2525 4250 2034 4250 
z
M 2034 4750 
Q 2819 4750 3233 4129 
Q 3647 3509 3647 2328 
Q 3647 1150 3233 529 
Q 2819 -91 2034 -91 
Q 1250 -91 836 529 
Q 422 1150 422 2328 
Q 422 3509 836 4129 
Q 1250 4750 2034 4750 
z
" transform="scale(0.015625)"/>
       </defs>
       <use xlink:href="#DejaVuSans-30"/>
      </g>
     </g>
    </g>
    <g id="xtick_2">
     <g id="line2d_3">
      <path d="M 100.258584 246.04 
L 100.258584 10.8 
" clip-path="url(#p70e45d0d2c)" style="fill: none; stroke: #b0b0b0; stroke-width: 0.8; stroke-linecap: square"/>
     </g>
     <g id="line2d_4">
      <g>
       <use xlink:href="#m545b748996" x="100.258584" y="246.04" style="stroke: #000000; stroke-width: 0.8"/>
      </g>
     </g>
     <g id="text_2">
      <!-- 25 -->
      <g transform="translate(93.896084 260.638438) scale(0.1 -0.1)">
       <defs>
        <path id="DejaVuSans-32" d="M 1228 531 
L 3431 531 
L 3431 0 
L 469 0 
L 469 531 
Q 828 903 1448 1529 
Q 2069 2156 2228 2338 
Q 2531 2678 2651 2914 
Q 2772 3150 2772 3378 
Q 2772 3750 2511 3984 
Q 2250 4219 1831 4219 
Q 1534 4219 1204 4116 
Q 875 4013 500 3803 
L 500 4441 
Q 881 4594 1212 4672 
Q 1544 4750 1819 4750 
Q 2544 4750 2975 4387 
Q 3406 4025 3406 3419 
Q 3406 3131 3298 2873 
Q 3191 2616 2906 2266 
Q 2828 2175 2409 1742 
Q 1991 1309 1228 531 
z
" transform="scale(0.015625)"/>
        <path id="DejaVuSans-35" d="M 691 4666 
L 3169 4666 
L 3169 4134 
L 1269 4134 
L 1269 2991 
Q 1406 3038 1543 3061 
Q 1681 3084 1819 3084 
Q 2600 3084 3056 2656 
Q 3513 2228 3513 1497 
Q 3513 744 3044 326 
Q 2575 -91 1722 -91 
Q 1428 -91 1123 -41 
Q 819 9 494 109 
L 494 744 
Q 775 591 1075 516 
Q 1375 441 1709 441 
Q 2250 441 2565 725 
Q 2881 1009 2881 1497 
Q 2881 1984 2565 2268 
Q 2250 2553 1709 2553 
Q 1456 2553 1204 2497 
Q 953 2441 691 2322 
L 691 4666 
z
" transform="scale(0.015625)"/>
       </defs>
       <use xlink:href="#DejaVuSans-32"/>
       <use xlink:href="#DejaVuSans-35" x="63.623047"/>
      </g>
     </g>
    </g>
    <g id="xtick_3">
     <g id="line2d_5">
      <path d="M 144.738072 246.04 
L 144.738072 10.8 
" clip-path="url(#p70e45d0d2c)" style="fill: none; stroke: #b0b0b0; stroke-width: 0.8; stroke-linecap: square"/>
     </g>
     <g id="line2d_6">
      <g>
       <use xlink:href="#m545b748996" x="144.738072" y="246.04" style="stroke: #000000; stroke-width: 0.8"/>
      </g>
     </g>
     <g id="text_3">
      <!-- 50 -->
      <g transform="translate(138.375572 260.638438) scale(0.1 -0.1)">
       <use xlink:href="#DejaVuSans-35"/>
       <use xlink:href="#DejaVuSans-30" x="63.623047"/>
      </g>
     </g>
    </g>
    <g id="xtick_4">
     <g id="line2d_7">
      <path d="M 189.21756 246.04 
L 189.21756 10.8 
" clip-path="url(#p70e45d0d2c)" style="fill: none; stroke: #b0b0b0; stroke-width: 0.8; stroke-linecap: square"/>
     </g>
     <g id="line2d_8">
      <g>
       <use xlink:href="#m545b748996" x="189.21756" y="246.04" style="stroke: #000000; stroke-width: 0.8"/>
      </g>
     </g>
     <g id="text_4">
      <!-- 75 -->
      <g transform="translate(182.85506 260.638438) scale(0.1 -0.1)">
       <defs>
        <path id="DejaVuSans-37" d="M 525 4666 
L 3525 4666 
L 3525 4397 
L 1831 0 
L 1172 0 
L 2766 4134 
L 525 4134 
L 525 4666 
z
" transform="scale(0.015625)"/>
       </defs>
       <use xlink:href="#DejaVuSans-37"/>
       <use xlink:href="#DejaVuSans-35" x="63.623047"/>
      </g>
     </g>
    </g>
    <g id="xtick_5">
     <g id="line2d_9">
      <path d="M 233.697048 246.04 
L 233.697048 10.8 
" clip-path="url(#p70e45d0d2c)" style="fill: none; stroke: #b0b0b0; stroke-width: 0.8; stroke-linecap: square"/>
     </g>
     <g id="line2d_10">
      <g>
       <use xlink:href="#m545b748996" x="233.697048" y="246.04" style="stroke: #000000; stroke-width: 0.8"/>
      </g>
     </g>
     <g id="text_5">
      <!-- 100 -->
      <g transform="translate(224.153298 260.638438) scale(0.1 -0.1)">
       <defs>
        <path id="DejaVuSans-31" d="M 794 531 
L 1825 531 
L 1825 4091 
L 703 3866 
L 703 4441 
L 1819 4666 
L 2450 4666 
L 2450 531 
L 3481 531 
L 3481 0 
L 794 0 
L 794 531 
z
" transform="scale(0.015625)"/>
       </defs>
       <use xlink:href="#DejaVuSans-31"/>
       <use xlink:href="#DejaVuSans-30" x="63.623047"/>
       <use xlink:href="#DejaVuSans-30" x="127.246094"/>
      </g>
     </g>
    </g>
    <g id="xtick_6">
     <g id="line2d_11">
      <path d="M 278.176536 246.04 
L 278.176536 10.8 
" clip-path="url(#p70e45d0d2c)" style="fill: none; stroke: #b0b0b0; stroke-width: 0.8; stroke-linecap: square"/>
     </g>
     <g id="line2d_12">
      <g>
       <use xlink:href="#m545b748996" x="278.176536" y="246.04" style="stroke: #000000; stroke-width: 0.8"/>
      </g>
     </g>
     <g id="text_6">
      <!-- 125 -->
      <g transform="translate(268.632786 260.638438) scale(0.1 -0.1)">
       <use xlink:href="#DejaVuSans-31"/>
       <use xlink:href="#DejaVuSans-32" x="63.623047"/>
       <use xlink:href="#DejaVuSans-35" x="127.246094"/>
      </g>
     </g>
    </g>
    <g id="xtick_7">
     <g id="line2d_13">
      <path d="M 322.656024 246.04 
L 322.656024 10.8 
" clip-path="url(#p70e45d0d2c)" style="fill: none; stroke: #b0b0b0; stroke-width: 0.8; stroke-linecap: square"/>
     </g>
     <g id="line2d_14">
      <g>
       <use xlink:href="#m545b748996" x="322.656024" y="246.04" style="stroke: #000000; stroke-width: 0.8"/>
      </g>
     </g>
     <g id="text_7">
      <!-- 150 -->
      <g transform="translate(313.112274 260.638438) scale(0.1 -0.1)">
       <use xlink:href="#DejaVuSans-31"/>
       <use xlink:href="#DejaVuSans-35" x="63.623047"/>
       <use xlink:href="#DejaVuSans-30" x="127.246094"/>
      </g>
     </g>
    </g>
    <g id="xtick_8">
     <g id="line2d_15">
      <path d="M 367.135512 246.04 
L 367.135512 10.8 
" clip-path="url(#p70e45d0d2c)" style="fill: none; stroke: #b0b0b0; stroke-width: 0.8; stroke-linecap: square"/>
     </g>
     <g id="line2d_16">
      <g>
       <use xlink:href="#m545b748996" x="367.135512" y="246.04" style="stroke: #000000; stroke-width: 0.8"/>
      </g>
     </g>
     <g id="text_8">
      <!-- 175 -->
      <g transform="translate(357.591762 260.638438) scale(0.1 -0.1)">
       <use xlink:href="#DejaVuSans-31"/>
       <use xlink:href="#DejaVuSans-37" x="63.623047"/>
       <use xlink:href="#DejaVuSans-35" x="127.246094"/>
      </g>
     </g>
    </g>
    <g id="xtick_9">
     <g id="line2d_17">
      <path d="M 411.615 246.04 
L 411.615 10.8 
" clip-path="url(#p70e45d0d2c)" style="fill: none; stroke: #b0b0b0; stroke-width: 0.8; stroke-linecap: square"/>
     </g>
     <g id="line2d_18">
      <g>
       <use xlink:href="#m545b748996" x="411.615" y="246.04" style="stroke: #000000; stroke-width: 0.8"/>
      </g>
     </g>
     <g id="text_9">
      <!-- 200 -->
      <g transform="translate(402.07125 260.638438) scale(0.1 -0.1)">
       <use xlink:href="#DejaVuSans-32"/>
       <use xlink:href="#DejaVuSans-30" x="63.623047"/>
       <use xlink:href="#DejaVuSans-30" x="127.246094"/>
      </g>
     </g>
    </g>
    <g id="text_10">
     <!-- Epochs -->
     <g transform="translate(215.781423 274.316562) scale(0.1 -0.1)">
      <defs>
       <path id="DejaVuSans-45" d="M 628 4666 
L 3578 4666 
L 3578 4134 
L 1259 4134 
L 1259 2753 
L 3481 2753 
L 3481 2222 
L 1259 2222 
L 1259 531 
L 3634 531 
L 3634 0 
L 628 0 
L 628 4666 
z
" transform="scale(0.015625)"/>
       <path id="DejaVuSans-70" d="M 1159 525 
L 1159 -1331 
L 581 -1331 
L 581 3500 
L 1159 3500 
L 1159 2969 
Q 1341 3281 1617 3432 
Q 1894 3584 2278 3584 
Q 2916 3584 3314 3078 
Q 3713 2572 3713 1747 
Q 3713 922 3314 415 
Q 2916 -91 2278 -91 
Q 1894 -91 1617 61 
Q 1341 213 1159 525 
z
M 3116 1747 
Q 3116 2381 2855 2742 
Q 2594 3103 2138 3103 
Q 1681 3103 1420 2742 
Q 1159 2381 1159 1747 
Q 1159 1113 1420 752 
Q 1681 391 2138 391 
Q 2594 391 2855 752 
Q 3116 1113 3116 1747 
z
" transform="scale(0.015625)"/>
       <path id="DejaVuSans-6f" d="M 1959 3097 
Q 1497 3097 1228 2736 
Q 959 2375 959 1747 
Q 959 1119 1226 758 
Q 1494 397 1959 397 
Q 2419 397 2687 759 
Q 2956 1122 2956 1747 
Q 2956 2369 2687 2733 
Q 2419 3097 1959 3097 
z
M 1959 3584 
Q 2709 3584 3137 3096 
Q 3566 2609 3566 1747 
Q 3566 888 3137 398 
Q 2709 -91 1959 -91 
Q 1206 -91 779 398 
Q 353 888 353 1747 
Q 353 2609 779 3096 
Q 1206 3584 1959 3584 
z
" transform="scale(0.015625)"/>
       <path id="DejaVuSans-63" d="M 3122 3366 
L 3122 2828 
Q 2878 2963 2633 3030 
Q 2388 3097 2138 3097 
Q 1578 3097 1268 2742 
Q 959 2388 959 1747 
Q 959 1106 1268 751 
Q 1578 397 2138 397 
Q 2388 397 2633 464 
Q 2878 531 3122 666 
L 3122 134 
Q 2881 22 2623 -34 
Q 2366 -91 2075 -91 
Q 1284 -91 818 406 
Q 353 903 353 1747 
Q 353 2603 823 3093 
Q 1294 3584 2113 3584 
Q 2378 3584 2631 3529 
Q 2884 3475 3122 3366 
z
" transform="scale(0.015625)"/>
       <path id="DejaVuSans-68" d="M 3513 2113 
L 3513 0 
L 2938 0 
L 2938 2094 
Q 2938 2591 2744 2837 
Q 2550 3084 2163 3084 
Q 1697 3084 1428 2787 
Q 1159 2491 1159 1978 
L 1159 0 
L 581 0 
L 581 4863 
L 1159 4863 
L 1159 2956 
Q 1366 3272 1645 3428 
Q 1925 3584 2291 3584 
Q 2894 3584 3203 3211 
Q 3513 2838 3513 2113 
z
" transform="scale(0.015625)"/>
       <path id="DejaVuSans-73" d="M 2834 3397 
L 2834 2853 
Q 2591 2978 2328 3040 
Q 2066 3103 1784 3103 
Q 1356 3103 1142 2972 
Q 928 2841 928 2578 
Q 928 2378 1081 2264 
Q 1234 2150 1697 2047 
L 1894 2003 
Q 2506 1872 2764 1633 
Q 3022 1394 3022 966 
Q 3022 478 2636 193 
Q 2250 -91 1575 -91 
Q 1294 -91 989 -36 
Q 684 19 347 128 
L 347 722 
Q 666 556 975 473 
Q 1284 391 1588 391 
Q 1994 391 2212 530 
Q 2431 669 2431 922 
Q 2431 1156 2273 1281 
Q 2116 1406 1581 1522 
L 1381 1569 
Q 847 1681 609 1914 
Q 372 2147 372 2553 
Q 372 3047 722 3315 
Q 1072 3584 1716 3584 
Q 2034 3584 2315 3537 
Q 2597 3491 2834 3397 
z
" transform="scale(0.015625)"/>
      </defs>
      <use xlink:href="#DejaVuSans-45"/>
      <use xlink:href="#DejaVuSans-70" x="63.183594"/>
      <use xlink:href="#DejaVuSans-6f" x="126.660156"/>
      <use xlink:href="#DejaVuSans-63" x="187.841797"/>
      <use xlink:href="#DejaVuSans-68" x="242.822266"/>
      <use xlink:href="#DejaVuSans-73" x="306.201172"/>
     </g>
    </g>
   </g>
   <g id="matplotlib.axis_2">
    <g id="ytick_1">
     <g id="line2d_19">
      <path d="M 55.779096 236.600237 
L 411.615 236.600237 
" clip-path="url(#p70e45d0d2c)" style="fill: none; stroke: #b0b0b0; stroke-width: 0.8; stroke-linecap: square"/>
     </g>
     <g id="line2d_20">
      <defs>
       <path id="m75c14f06d7" d="M 0 0 
L -3.5 0 
" style="stroke: #000000; stroke-width: 0.8"/>
      </defs>
      <g>
       <use xlink:href="#m75c14f06d7" x="55.779096" y="236.600237" style="stroke: #000000; stroke-width: 0.8"/>
      </g>
     </g>
     <g id="text_11">
      <!-- $\mathdefault{10^{-2}}$ -->
      <g transform="translate(25.279096 240.399456) scale(0.1 -0.1)">
       <defs>
        <path id="DejaVuSans-2212" d="M 678 2272 
L 4684 2272 
L 4684 1741 
L 678 1741 
L 678 2272 
z
" transform="scale(0.015625)"/>
       </defs>
       <use xlink:href="#DejaVuSans-31" transform="translate(0 0.765625)"/>
       <use xlink:href="#DejaVuSans-30" transform="translate(63.623047 0.765625)"/>
       <use xlink:href="#DejaVuSans-2212" transform="translate(128.203125 39.046875) scale(0.7)"/>
       <use xlink:href="#DejaVuSans-32" transform="translate(186.855469 39.046875) scale(0.7)"/>
      </g>
     </g>
    </g>
    <g id="ytick_2">
     <g id="line2d_21">
      <path d="M 55.779096 141.166919 
L 411.615 141.166919 
" clip-path="url(#p70e45d0d2c)" style="fill: none; stroke: #b0b0b0; stroke-width: 0.8; stroke-linecap: square"/>
     </g>
     <g id="line2d_22">
      <g>
       <use xlink:href="#m75c14f06d7" x="55.779096" y="141.166919" style="stroke: #000000; stroke-width: 0.8"/>
      </g>
     </g>
     <g id="text_12">
      <!-- $\mathdefault{10^{-1}}$ -->
      <g transform="translate(25.279096 144.966137) scale(0.1 -0.1)">
       <use xlink:href="#DejaVuSans-31" transform="translate(0 0.684375)"/>
       <use xlink:href="#DejaVuSans-30" transform="translate(63.623047 0.684375)"/>
       <use xlink:href="#DejaVuSans-2212" transform="translate(128.203125 38.965625) scale(0.7)"/>
       <use xlink:href="#DejaVuSans-31" transform="translate(186.855469 38.965625) scale(0.7)"/>
      </g>
     </g>
    </g>
    <g id="ytick_3">
     <g id="line2d_23">
      <path d="M 55.779096 45.7336 
L 411.615 45.7336 
" clip-path="url(#p70e45d0d2c)" style="fill: none; stroke: #b0b0b0; stroke-width: 0.8; stroke-linecap: square"/>
     </g>
     <g id="line2d_24">
      <g>
       <use xlink:href="#m75c14f06d7" x="55.779096" y="45.7336" style="stroke: #000000; stroke-width: 0.8"/>
      </g>
     </g>
     <g id="text_13">
      <!-- $\mathdefault{10^{0}}$ -->
      <g transform="translate(31.179096 49.532819) scale(0.1 -0.1)">
       <use xlink:href="#DejaVuSans-31" transform="translate(0 0.765625)"/>
       <use xlink:href="#DejaVuSans-30" transform="translate(63.623047 0.765625)"/>
       <use xlink:href="#DejaVuSans-30" transform="translate(128.203125 39.046875) scale(0.7)"/>
      </g>
     </g>
    </g>
    <g id="ytick_4">
     <g id="line2d_25">
      <defs>
       <path id="md3475e8221" d="M 0 0 
L -2 0 
" style="stroke: #000000; stroke-width: 0.6"/>
      </defs>
      <g>
       <use xlink:href="#md3475e8221" x="55.779096" y="245.848682" style="stroke: #000000; stroke-width: 0.6"/>
      </g>
     </g>
    </g>
    <g id="ytick_5">
     <g id="line2d_26">
      <g>
       <use xlink:href="#md3475e8221" x="55.779096" y="240.967027" style="stroke: #000000; stroke-width: 0.6"/>
      </g>
     </g>
    </g>
    <g id="ytick_6">
     <g id="line2d_27">
      <g>
       <use xlink:href="#md3475e8221" x="55.779096" y="207.871946" style="stroke: #000000; stroke-width: 0.6"/>
      </g>
     </g>
    </g>
    <g id="ytick_7">
     <g id="line2d_28">
      <g>
       <use xlink:href="#md3475e8221" x="55.779096" y="191.066973" style="stroke: #000000; stroke-width: 0.6"/>
      </g>
     </g>
    </g>
    <g id="ytick_8">
     <g id="line2d_29">
      <g>
       <use xlink:href="#md3475e8221" x="55.779096" y="179.143654" style="stroke: #000000; stroke-width: 0.6"/>
      </g>
     </g>
    </g>
    <g id="ytick_9">
     <g id="line2d_30">
      <g>
       <use xlink:href="#md3475e8221" x="55.779096" y="169.89521" style="stroke: #000000; stroke-width: 0.6"/>
      </g>
     </g>
    </g>
    <g id="ytick_10">
     <g id="line2d_31">
      <g>
       <use xlink:href="#md3475e8221" x="55.779096" y="162.338681" style="stroke: #000000; stroke-width: 0.6"/>
      </g>
     </g>
    </g>
    <g id="ytick_11">
     <g id="line2d_32">
      <g>
       <use xlink:href="#md3475e8221" x="55.779096" y="155.949727" style="stroke: #000000; stroke-width: 0.6"/>
      </g>
     </g>
    </g>
    <g id="ytick_12">
     <g id="line2d_33">
      <g>
       <use xlink:href="#md3475e8221" x="55.779096" y="150.415363" style="stroke: #000000; stroke-width: 0.6"/>
      </g>
     </g>
    </g>
    <g id="ytick_13">
     <g id="line2d_34">
      <g>
       <use xlink:href="#md3475e8221" x="55.779096" y="145.533708" style="stroke: #000000; stroke-width: 0.6"/>
      </g>
     </g>
    </g>
    <g id="ytick_14">
     <g id="line2d_35">
      <g>
       <use xlink:href="#md3475e8221" x="55.779096" y="112.438627" style="stroke: #000000; stroke-width: 0.6"/>
      </g>
     </g>
    </g>
    <g id="ytick_15">
     <g id="line2d_36">
      <g>
       <use xlink:href="#md3475e8221" x="55.779096" y="95.633654" style="stroke: #000000; stroke-width: 0.6"/>
      </g>
     </g>
    </g>
    <g id="ytick_16">
     <g id="line2d_37">
      <g>
       <use xlink:href="#md3475e8221" x="55.779096" y="83.710336" style="stroke: #000000; stroke-width: 0.6"/>
      </g>
     </g>
    </g>
    <g id="ytick_17">
     <g id="line2d_38">
      <g>
       <use xlink:href="#md3475e8221" x="55.779096" y="74.461891" style="stroke: #000000; stroke-width: 0.6"/>
      </g>
     </g>
    </g>
    <g id="ytick_18">
     <g id="line2d_39">
      <g>
       <use xlink:href="#md3475e8221" x="55.779096" y="66.905362" style="stroke: #000000; stroke-width: 0.6"/>
      </g>
     </g>
    </g>
    <g id="ytick_19">
     <g id="line2d_40">
      <g>
       <use xlink:href="#md3475e8221" x="55.779096" y="60.516408" style="stroke: #000000; stroke-width: 0.6"/>
      </g>
     </g>
    </g>
    <g id="ytick_20">
     <g id="line2d_41">
      <g>
       <use xlink:href="#md3475e8221" x="55.779096" y="54.982044" style="stroke: #000000; stroke-width: 0.6"/>
      </g>
     </g>
    </g>
    <g id="ytick_21">
     <g id="line2d_42">
      <g>
       <use xlink:href="#md3475e8221" x="55.779096" y="50.100389" style="stroke: #000000; stroke-width: 0.6"/>
      </g>
     </g>
    </g>
    <g id="ytick_22">
     <g id="line2d_43">
      <g>
       <use xlink:href="#md3475e8221" x="55.779096" y="17.005308" style="stroke: #000000; stroke-width: 0.6"/>
      </g>
     </g>
    </g>
    <g id="text_14">
     <!-- Mean Squared Error (a.u.) -->
     <g transform="translate(19.199409 193.083281) rotate(-90) scale(0.1 -0.1)">
      <defs>
       <path id="DejaVuSans-4d" d="M 628 4666 
L 1569 4666 
L 2759 1491 
L 3956 4666 
L 4897 4666 
L 4897 0 
L 4281 0 
L 4281 4097 
L 3078 897 
L 2444 897 
L 1241 4097 
L 1241 0 
L 628 0 
L 628 4666 
z
" transform="scale(0.015625)"/>
       <path id="DejaVuSans-65" d="M 3597 1894 
L 3597 1613 
L 953 1613 
Q 991 1019 1311 708 
Q 1631 397 2203 397 
Q 2534 397 2845 478 
Q 3156 559 3463 722 
L 3463 178 
Q 3153 47 2828 -22 
Q 2503 -91 2169 -91 
Q 1331 -91 842 396 
Q 353 884 353 1716 
Q 353 2575 817 3079 
Q 1281 3584 2069 3584 
Q 2775 3584 3186 3129 
Q 3597 2675 3597 1894 
z
M 3022 2063 
Q 3016 2534 2758 2815 
Q 2500 3097 2075 3097 
Q 1594 3097 1305 2825 
Q 1016 2553 972 2059 
L 3022 2063 
z
" transform="scale(0.015625)"/>
       <path id="DejaVuSans-61" d="M 2194 1759 
Q 1497 1759 1228 1600 
Q 959 1441 959 1056 
Q 959 750 1161 570 
Q 1363 391 1709 391 
Q 2188 391 2477 730 
Q 2766 1069 2766 1631 
L 2766 1759 
L 2194 1759 
z
M 3341 1997 
L 3341 0 
L 2766 0 
L 2766 531 
Q 2569 213 2275 61 
Q 1981 -91 1556 -91 
Q 1019 -91 701 211 
Q 384 513 384 1019 
Q 384 1609 779 1909 
Q 1175 2209 1959 2209 
L 2766 2209 
L 2766 2266 
Q 2766 2663 2505 2880 
Q 2244 3097 1772 3097 
Q 1472 3097 1187 3025 
Q 903 2953 641 2809 
L 641 3341 
Q 956 3463 1253 3523 
Q 1550 3584 1831 3584 
Q 2591 3584 2966 3190 
Q 3341 2797 3341 1997 
z
" transform="scale(0.015625)"/>
       <path id="DejaVuSans-6e" d="M 3513 2113 
L 3513 0 
L 2938 0 
L 2938 2094 
Q 2938 2591 2744 2837 
Q 2550 3084 2163 3084 
Q 1697 3084 1428 2787 
Q 1159 2491 1159 1978 
L 1159 0 
L 581 0 
L 581 3500 
L 1159 3500 
L 1159 2956 
Q 1366 3272 1645 3428 
Q 1925 3584 2291 3584 
Q 2894 3584 3203 3211 
Q 3513 2838 3513 2113 
z
" transform="scale(0.015625)"/>
       <path id="DejaVuSans-20" transform="scale(0.015625)"/>
       <path id="DejaVuSans-53" d="M 3425 4513 
L 3425 3897 
Q 3066 4069 2747 4153 
Q 2428 4238 2131 4238 
Q 1616 4238 1336 4038 
Q 1056 3838 1056 3469 
Q 1056 3159 1242 3001 
Q 1428 2844 1947 2747 
L 2328 2669 
Q 3034 2534 3370 2195 
Q 3706 1856 3706 1288 
Q 3706 609 3251 259 
Q 2797 -91 1919 -91 
Q 1588 -91 1214 -16 
Q 841 59 441 206 
L 441 856 
Q 825 641 1194 531 
Q 1563 422 1919 422 
Q 2459 422 2753 634 
Q 3047 847 3047 1241 
Q 3047 1584 2836 1778 
Q 2625 1972 2144 2069 
L 1759 2144 
Q 1053 2284 737 2584 
Q 422 2884 422 3419 
Q 422 4038 858 4394 
Q 1294 4750 2059 4750 
Q 2388 4750 2728 4690 
Q 3069 4631 3425 4513 
z
" transform="scale(0.015625)"/>
       <path id="DejaVuSans-71" d="M 947 1747 
Q 947 1113 1208 752 
Q 1469 391 1925 391 
Q 2381 391 2643 752 
Q 2906 1113 2906 1747 
Q 2906 2381 2643 2742 
Q 2381 3103 1925 3103 
Q 1469 3103 1208 2742 
Q 947 2381 947 1747 
z
M 2906 525 
Q 2725 213 2448 61 
Q 2172 -91 1784 -91 
Q 1150 -91 751 415 
Q 353 922 353 1747 
Q 353 2572 751 3078 
Q 1150 3584 1784 3584 
Q 2172 3584 2448 3432 
Q 2725 3281 2906 2969 
L 2906 3500 
L 3481 3500 
L 3481 -1331 
L 2906 -1331 
L 2906 525 
z
" transform="scale(0.015625)"/>
       <path id="DejaVuSans-75" d="M 544 1381 
L 544 3500 
L 1119 3500 
L 1119 1403 
Q 1119 906 1312 657 
Q 1506 409 1894 409 
Q 2359 409 2629 706 
Q 2900 1003 2900 1516 
L 2900 3500 
L 3475 3500 
L 3475 0 
L 2900 0 
L 2900 538 
Q 2691 219 2414 64 
Q 2138 -91 1772 -91 
Q 1169 -91 856 284 
Q 544 659 544 1381 
z
M 1991 3584 
L 1991 3584 
z
" transform="scale(0.015625)"/>
       <path id="DejaVuSans-72" d="M 2631 2963 
Q 2534 3019 2420 3045 
Q 2306 3072 2169 3072 
Q 1681 3072 1420 2755 
Q 1159 2438 1159 1844 
L 1159 0 
L 581 0 
L 581 3500 
L 1159 3500 
L 1159 2956 
Q 1341 3275 1631 3429 
Q 1922 3584 2338 3584 
Q 2397 3584 2469 3576 
Q 2541 3569 2628 3553 
L 2631 2963 
z
" transform="scale(0.015625)"/>
       <path id="DejaVuSans-64" d="M 2906 2969 
L 2906 4863 
L 3481 4863 
L 3481 0 
L 2906 0 
L 2906 525 
Q 2725 213 2448 61 
Q 2172 -91 1784 -91 
Q 1150 -91 751 415 
Q 353 922 353 1747 
Q 353 2572 751 3078 
Q 1150 3584 1784 3584 
Q 2172 3584 2448 3432 
Q 2725 3281 2906 2969 
z
M 947 1747 
Q 947 1113 1208 752 
Q 1469 391 1925 391 
Q 2381 391 2643 752 
Q 2906 1113 2906 1747 
Q 2906 2381 2643 2742 
Q 2381 3103 1925 3103 
Q 1469 3103 1208 2742 
Q 947 2381 947 1747 
z
" transform="scale(0.015625)"/>
       <path id="DejaVuSans-28" d="M 1984 4856 
Q 1566 4138 1362 3434 
Q 1159 2731 1159 2009 
Q 1159 1288 1364 580 
Q 1569 -128 1984 -844 
L 1484 -844 
Q 1016 -109 783 600 
Q 550 1309 550 2009 
Q 550 2706 781 3412 
Q 1013 4119 1484 4856 
L 1984 4856 
z
" transform="scale(0.015625)"/>
       <path id="DejaVuSans-2e" d="M 684 794 
L 1344 794 
L 1344 0 
L 684 0 
L 684 794 
z
" transform="scale(0.015625)"/>
       <path id="DejaVuSans-29" d="M 513 4856 
L 1013 4856 
Q 1481 4119 1714 3412 
Q 1947 2706 1947 2009 
Q 1947 1309 1714 600 
Q 1481 -109 1013 -844 
L 513 -844 
Q 928 -128 1133 580 
Q 1338 1288 1338 2009 
Q 1338 2731 1133 3434 
Q 928 4138 513 4856 
z
" transform="scale(0.015625)"/>
      </defs>
      <use xlink:href="#DejaVuSans-4d"/>
      <use xlink:href="#DejaVuSans-65" x="86.279297"/>
      <use xlink:href="#DejaVuSans-61" x="147.802734"/>
      <use xlink:href="#DejaVuSans-6e" x="209.082031"/>
      <use xlink:href="#DejaVuSans-20" x="272.460938"/>
      <use xlink:href="#DejaVuSans-53" x="304.248047"/>
      <use xlink:href="#DejaVuSans-71" x="367.724609"/>
      <use xlink:href="#DejaVuSans-75" x="431.201172"/>
      <use xlink:href="#DejaVuSans-61" x="494.580078"/>
      <use xlink:href="#DejaVuSans-72" x="555.859375"/>
      <use xlink:href="#DejaVuSans-65" x="594.722656"/>
      <use xlink:href="#DejaVuSans-64" x="656.246094"/>
      <use xlink:href="#DejaVuSans-20" x="719.722656"/>
      <use xlink:href="#DejaVuSans-45" x="751.509766"/>
      <use xlink:href="#DejaVuSans-72" x="814.693359"/>
      <use xlink:href="#DejaVuSans-72" x="854.056641"/>
      <use xlink:href="#DejaVuSans-6f" x="892.919922"/>
      <use xlink:href="#DejaVuSans-72" x="954.101562"/>
      <use xlink:href="#DejaVuSans-20" x="995.214844"/>
      <use xlink:href="#DejaVuSans-28" x="1027.001953"/>
      <use xlink:href="#DejaVuSans-61" x="1066.015625"/>
      <use xlink:href="#DejaVuSans-2e" x="1127.294922"/>
      <use xlink:href="#DejaVuSans-75" x="1159.082031"/>
      <use xlink:href="#DejaVuSans-2e" x="1222.460938"/>
      <use xlink:href="#DejaVuSans-29" x="1254.248047"/>
     </g>
    </g>
   </g>
   <g id="line2d_44">
    <path d="M 57.558276 21.493253 
L 59.337455 22.182513 
L 62.895814 22.859768 
L 64.674994 22.789509 
L 66.454173 24.068351 
L 68.233353 22.178701 
L 70.012532 23.059377 
L 71.791712 25.553013 
L 73.570891 26.480352 
L 75.350071 26.824972 
L 77.12925 28.208333 
L 78.90843 28.918904 
L 80.687609 30.106532 
L 82.466789 31.014868 
L 84.245968 32.153017 
L 86.025148 33.48797 
L 87.804327 34.500452 
L 89.583507 35.212882 
L 91.362687 35.74544 
L 93.141866 37.368594 
L 94.921046 37.38575 
L 96.700225 38.752369 
L 98.479405 39.077687 
L 100.258584 40.448421 
L 102.037764 41.63206 
L 103.816943 42.165409 
L 105.596123 43.77936 
L 107.375302 45.223607 
L 109.154482 45.534005 
L 110.933661 47.465434 
L 112.712841 46.789338 
L 114.49202 48.739342 
L 116.2712 50.42408 
L 118.050379 51.933863 
L 119.829559 52.992744 
L 121.608738 54.637218 
L 123.387918 55.749993 
L 125.167097 58.427773 
L 126.946277 59.964987 
L 128.725456 61.74401 
L 130.504636 64.033113 
L 134.062995 67.938021 
L 135.842175 70.033453 
L 137.621354 72.610947 
L 139.400534 74.294402 
L 142.958893 80.332936 
L 146.517252 83.094332 
L 148.296431 85.395502 
L 150.075611 88.505477 
L 151.85479 89.142767 
L 153.63397 90.971215 
L 155.413149 93.636059 
L 157.192329 94.798484 
L 158.971508 96.145964 
L 160.750688 100.476847 
L 162.529867 101.327508 
L 164.309047 102.338171 
L 166.088226 106.570556 
L 167.867406 105.066922 
L 169.646585 105.750427 
L 171.425765 107.219913 
L 173.204944 107.532458 
L 174.984124 110.050135 
L 176.763303 107.820919 
L 178.542483 112.141945 
L 180.321662 115.275483 
L 182.100842 114.218243 
L 183.880022 117.652505 
L 185.659201 120.675859 
L 187.438381 121.243664 
L 190.99674 126.376077 
L 192.775919 125.94849 
L 194.555099 128.29976 
L 196.334278 127.854038 
L 198.113458 129.739773 
L 199.892637 126.126218 
L 201.671817 130.733306 
L 205.230176 129.353057 
L 207.009355 129.547562 
L 208.788535 132.95739 
L 210.567714 135.06201 
L 212.346894 132.410007 
L 214.126073 134.085607 
L 215.905253 134.356443 
L 217.684432 139.543615 
L 219.463612 138.700234 
L 221.242791 137.134689 
L 223.021971 134.703203 
L 224.80115 142.436998 
L 226.58033 137.187375 
L 228.35951 134.510992 
L 230.138689 139.651335 
L 231.917869 141.51071 
L 233.697048 145.634019 
L 235.476228 143.983201 
L 237.255407 143.565581 
L 239.034587 142.629233 
L 240.813766 139.322645 
L 242.592946 142.9973 
L 244.372125 146.29311 
L 246.151305 145.655428 
L 247.930484 144.520262 
L 249.709664 144.728352 
L 251.488843 146.039052 
L 253.268023 146.215255 
L 255.047202 147.462489 
L 258.605561 149.529202 
L 260.384741 149.99833 
L 262.16392 146.549815 
L 263.9431 151.391591 
L 265.722279 152.513354 
L 267.501459 149.659589 
L 269.280638 149.117669 
L 271.059818 148.881263 
L 272.838997 150.995714 
L 274.618177 149.940607 
L 276.397357 153.526724 
L 278.176536 152.41211 
L 279.955716 152.375372 
L 281.734895 154.485251 
L 283.514075 155.891709 
L 285.293254 156.164336 
L 287.072434 155.718694 
L 288.851613 158.222452 
L 290.630793 156.01827 
L 292.409972 157.599114 
L 294.189152 157.321262 
L 295.968331 156.698428 
L 297.747511 157.461476 
L 299.52669 158.532797 
L 301.30587 160.587603 
L 303.085049 164.691724 
L 304.864229 164.05504 
L 306.643408 163.919589 
L 308.422588 163.573209 
L 310.201767 162.625757 
L 311.980947 163.451857 
L 313.760126 164.092945 
L 315.539306 168.402529 
L 317.318485 168.674219 
L 319.097665 165.664513 
L 320.876845 166.418587 
L 322.656024 166.020592 
L 324.435204 165.077297 
L 326.214383 165.127267 
L 327.993563 166.384153 
L 329.772742 168.146853 
L 331.551922 167.160085 
L 333.331101 160.186891 
L 335.110281 166.405309 
L 336.88946 168.92149 
L 338.66864 168.673325 
L 340.447819 167.337597 
L 344.006178 170.085923 
L 345.785358 171.319775 
L 347.564537 170.23172 
L 349.343717 170.583152 
L 351.122896 171.528723 
L 352.902076 170.69754 
L 354.681255 173.885603 
L 356.460435 172.582903 
L 358.239614 173.132045 
L 360.018794 173.956531 
L 361.797973 173.557246 
L 363.577153 174.027083 
L 365.356332 172.500271 
L 367.135512 175.263981 
L 368.914692 174.546977 
L 370.693871 176.76681 
L 372.473051 175.712018 
L 374.25223 175.532046 
L 376.03141 174.8286 
L 377.810589 175.99364 
L 379.589769 175.514021 
L 381.368948 173.21737 
L 383.148128 177.482843 
L 384.927307 178.610497 
L 386.706487 178.29121 
L 388.485666 178.628594 
L 390.264846 176.626281 
L 393.823205 179.137835 
L 395.602384 181.070359 
L 397.381564 182.524589 
L 399.160743 180.959549 
L 400.939923 182.176827 
L 402.719102 183.091804 
L 404.498282 182.52126 
L 406.277461 183.070793 
L 409.83582 182.81259 
L 411.615 183.109512 
L 411.615 183.109512 
" clip-path="url(#p70e45d0d2c)" style="fill: none; stroke: #0000ff; stroke-width: 1.5; stroke-linecap: square"/>
   </g>
   <g id="line2d_45">
    <path d="M 57.549105 36.861324 
L 59.328284 39.384568 
L 61.107464 39.335738 
L 62.886643 40.146443 
L 64.665823 42.202956 
L 66.445002 42.300896 
L 68.224182 43.137152 
L 70.003361 43.57787 
L 71.782541 43.204172 
L 73.56172 39.236535 
L 75.3409 40.746474 
L 77.120079 43.18563 
L 78.899259 43.47453 
L 80.678438 43.892215 
L 82.457618 45.529796 
L 84.236797 45.462966 
L 86.015977 46.116539 
L 89.574336 41.583211 
L 91.353515 44.116943 
L 93.132695 35.604803 
L 94.911875 45.079464 
L 96.691054 45.48588 
L 100.249413 42.840826 
L 102.028593 42.016904 
L 103.807772 45.149405 
L 105.586952 49.014765 
L 107.366131 44.514489 
L 109.145311 49.581335 
L 110.92449 46.128621 
L 112.70367 48.323824 
L 114.482849 46.734665 
L 116.262029 43.816752 
L 118.041208 22.303245 
L 119.820388 26.900312 
L 121.599567 21.492727 
L 123.378747 41.757005 
L 125.157926 43.323824 
L 126.937106 49.55806 
L 128.716285 48.389909 
L 130.495465 52.180155 
L 132.274644 58.29945 
L 134.053824 51.956382 
L 135.833003 55.770945 
L 137.612183 52.310854 
L 139.391363 56.899744 
L 141.170542 64.299173 
L 142.949722 64.980704 
L 144.728901 61.660796 
L 146.508081 59.773466 
L 148.28726 70.36344 
L 150.06644 73.185959 
L 151.845619 68.974095 
L 153.624799 73.395672 
L 155.403978 73.014419 
L 157.183158 76.006408 
L 158.962337 73.345734 
L 160.741517 74.396626 
L 162.520696 75.203324 
L 164.299876 75.645735 
L 166.079055 78.693213 
L 167.858235 77.085437 
L 169.637414 79.267547 
L 171.416594 79.857902 
L 173.195773 83.641191 
L 174.974953 84.159529 
L 176.754132 84.410882 
L 178.533312 83.192646 
L 180.312491 82.968855 
L 182.091671 89.626533 
L 183.870851 93.072737 
L 185.65003 90.29202 
L 187.42921 91.981356 
L 189.208389 93.338063 
L 190.987569 95.670918 
L 192.766748 96.848676 
L 194.545928 95.532983 
L 196.325107 97.239886 
L 198.104287 93.277999 
L 199.883466 103.455497 
L 201.662646 99.436821 
L 203.441825 98.878047 
L 205.221005 100.954995 
L 207.000184 94.394612 
L 208.779364 99.493005 
L 210.558543 95.116119 
L 212.337723 101.979531 
L 214.116902 99.295116 
L 215.896082 101.343709 
L 217.675261 98.952288 
L 219.454441 99.82607 
L 221.23362 105.226075 
L 223.0128 100.450709 
L 224.791979 98.116145 
L 226.571159 103.394021 
L 228.350338 103.631422 
L 230.129518 100.121599 
L 231.908698 103.388803 
L 233.687877 102.929028 
L 237.246236 102.480034 
L 239.025416 104.240894 
L 240.804595 107.204209 
L 242.583775 103.587439 
L 244.362954 102.651597 
L 246.142134 100.061876 
L 247.921313 102.42284 
L 249.700493 101.738913 
L 251.479672 105.015286 
L 253.258852 100.97039 
L 255.038031 100.360638 
L 256.817211 100.591879 
L 258.59639 102.477392 
L 260.37557 95.960862 
L 262.154749 103.276118 
L 263.933929 102.878234 
L 265.713108 103.139966 
L 267.492288 101.819999 
L 269.271467 99.154025 
L 271.050647 101.184332 
L 272.829826 96.305336 
L 274.609006 97.660076 
L 276.388186 100.343364 
L 278.167365 100.145542 
L 279.946545 98.945446 
L 281.725724 103.048349 
L 283.504904 103.854965 
L 285.284083 101.641123 
L 287.063263 105.294732 
L 288.842442 105.777991 
L 290.621622 105.576087 
L 292.400801 103.69668 
L 294.179981 109.49012 
L 295.95916 108.358625 
L 297.73834 108.301718 
L 299.517519 108.57856 
L 301.296699 109.87409 
L 303.075878 108.367934 
L 304.855058 106.457809 
L 306.634237 109.676624 
L 308.413417 110.188522 
L 310.192596 109.245538 
L 311.971776 111.27289 
L 313.750955 107.852428 
L 315.530135 110.240924 
L 317.309314 110.287888 
L 319.088494 111.619117 
L 320.867673 111.025111 
L 322.646853 113.260947 
L 324.426033 109.792599 
L 326.205212 108.412948 
L 327.984392 111.466928 
L 329.763571 109.996521 
L 331.542751 113.135898 
L 333.32193 114.010288 
L 335.10111 112.028179 
L 336.880289 112.226753 
L 338.659469 114.056484 
L 340.438648 111.198094 
L 342.217828 113.338708 
L 343.997007 114.06888 
L 345.776187 112.68646 
L 347.555366 113.563852 
L 349.334546 116.401261 
L 351.113725 116.033923 
L 352.892905 113.892759 
L 354.672084 113.373721 
L 356.451264 113.670948 
L 358.230443 111.795144 
L 360.009623 114.388692 
L 361.788802 116.028939 
L 363.567982 115.319151 
L 365.347161 113.900775 
L 367.126341 115.53288 
L 368.905521 116.824788 
L 370.6847 115.979246 
L 372.46388 115.798443 
L 374.243059 113.790956 
L 376.022239 112.561277 
L 377.801418 114.671706 
L 379.580598 116.364917 
L 381.359777 117.21393 
L 383.138957 118.803 
L 384.918136 116.981835 
L 386.697316 116.576645 
L 388.476495 116.894255 
L 390.255675 118.73006 
L 392.034854 119.23154 
L 393.814034 120.048401 
L 395.593213 119.673539 
L 397.372393 118.429825 
L 399.151572 120.775754 
L 400.930752 120.182044 
L 402.709931 117.928006 
L 404.489111 118.929079 
L 406.26829 117.421257 
L 408.04747 116.808475 
L 409.826649 121.037081 
L 411.605829 120.138367 
L 411.605829 120.138367 
" clip-path="url(#p70e45d0d2c)" style="fill: none; stroke-dasharray: 5.55,2.4; stroke-dashoffset: 0; stroke: #0000ff; stroke-width: 1.5"/>
   </g>
   <g id="line2d_46">
    <path d="M 57.558276 52.302925 
L 59.337455 70.649866 
L 61.116635 83.343441 
L 62.895814 91.689587 
L 64.674994 96.06623 
L 66.454173 100.006238 
L 68.233353 104.764819 
L 70.012532 109.108376 
L 71.791712 114.318527 
L 73.570891 109.707318 
L 75.350071 116.150952 
L 77.12925 114.654079 
L 78.90843 121.779382 
L 80.687609 123.578764 
L 82.466789 121.004278 
L 84.245968 129.49452 
L 86.025148 127.146117 
L 87.804327 128.825098 
L 89.583507 123.765739 
L 91.362687 133.355668 
L 93.141866 129.159775 
L 94.921046 132.41354 
L 96.700225 132.592784 
L 98.479405 138.732697 
L 100.258584 139.120076 
L 102.037764 137.987873 
L 103.816943 143.735896 
L 105.596123 140.038731 
L 107.375302 138.486627 
L 109.154482 143.424088 
L 110.933661 143.138277 
L 112.712841 142.57307 
L 114.49202 144.790865 
L 116.2712 145.906595 
L 118.050379 146.633706 
L 119.829559 146.251885 
L 121.608738 145.392829 
L 123.387918 146.391679 
L 125.167097 147.847492 
L 126.946277 146.163805 
L 128.725456 147.383968 
L 130.504636 149.410061 
L 132.283815 150.7833 
L 134.062995 151.120485 
L 135.842175 153.619462 
L 137.621354 151.915265 
L 139.400534 155.002539 
L 141.179713 154.235852 
L 142.958893 156.671181 
L 144.738072 155.397149 
L 146.517252 158.022497 
L 148.296431 157.200948 
L 150.075611 152.629876 
L 153.63397 161.722686 
L 155.413149 161.710049 
L 157.192329 160.854464 
L 158.971508 162.237725 
L 160.750688 157.998574 
L 162.529867 161.54709 
L 164.309047 166.567173 
L 166.088226 168.121516 
L 167.867406 158.569994 
L 169.646585 166.476838 
L 171.425765 164.668506 
L 173.204944 162.281013 
L 174.984124 166.052919 
L 176.763303 164.728763 
L 178.542483 164.825206 
L 180.321662 168.635885 
L 182.100842 166.907997 
L 183.880022 167.461944 
L 185.659201 174.849638 
L 189.21756 168.212389 
L 190.99674 172.661916 
L 192.775919 172.682801 
L 194.555099 174.538866 
L 196.334278 172.178157 
L 198.113458 172.923767 
L 199.892637 174.540576 
L 201.671817 173.304888 
L 203.450996 175.70169 
L 205.230176 177.502829 
L 207.009355 179.46888 
L 208.788535 177.155413 
L 210.567714 177.936382 
L 212.346894 181.53337 
L 214.126073 179.810349 
L 215.905253 180.838197 
L 217.684432 176.389487 
L 219.463612 177.827058 
L 221.242791 179.906662 
L 223.021971 180.033673 
L 224.80115 180.477011 
L 226.58033 179.269728 
L 228.35951 181.403916 
L 230.138689 182.454001 
L 231.917869 181.324381 
L 233.697048 191.566933 
L 235.476228 183.629065 
L 237.255407 189.63001 
L 239.034587 189.605954 
L 240.813766 192.187418 
L 242.592946 189.471926 
L 244.372125 194.47553 
L 246.151305 197.268034 
L 247.930484 192.120469 
L 249.709664 193.065048 
L 251.488843 195.398333 
L 253.268023 195.048445 
L 255.047202 194.58159 
L 256.826382 190.009471 
L 258.605561 192.326441 
L 260.384741 195.998995 
L 262.16392 185.122004 
L 263.9431 189.734681 
L 265.722279 194.769172 
L 267.501459 199.349291 
L 269.280638 198.78883 
L 271.059818 199.981635 
L 272.838997 194.628209 
L 274.618177 201.556215 
L 276.397357 201.873604 
L 278.176536 196.401291 
L 279.955716 195.432125 
L 281.734895 203.179323 
L 283.514075 204.750207 
L 285.293254 198.853787 
L 287.072434 198.261395 
L 288.851613 201.933906 
L 290.630793 205.10736 
L 292.409972 204.301641 
L 294.189152 203.935687 
L 295.968331 205.332558 
L 297.747511 205.675153 
L 299.52669 202.366926 
L 301.30587 196.19622 
L 303.085049 199.117524 
L 304.864229 203.325154 
L 306.643408 205.209606 
L 308.422588 203.317037 
L 310.201767 207.889818 
L 311.980947 211.780518 
L 313.760126 210.4836 
L 315.539306 213.593767 
L 317.318485 212.55328 
L 319.097665 211.342505 
L 320.876845 210.745919 
L 322.656024 206.702861 
L 324.435204 209.044077 
L 326.214383 210.277186 
L 327.993563 209.015331 
L 329.772742 215.568428 
L 331.551922 217.781672 
L 333.331101 214.82533 
L 335.110281 212.686051 
L 336.88946 212.555756 
L 338.66864 215.419682 
L 340.447819 211.590409 
L 342.226999 208.816373 
L 344.006178 214.444701 
L 345.785358 219.105156 
L 347.564537 217.442302 
L 349.343717 212.459768 
L 351.122896 219.508979 
L 352.902076 216.272727 
L 354.681255 217.220584 
L 356.460435 217.869605 
L 358.239614 216.863201 
L 360.018794 220.340425 
L 361.797973 223.418823 
L 363.577153 223.694579 
L 365.356332 226.195977 
L 367.135512 223.558916 
L 368.914692 219.165588 
L 370.693871 216.685043 
L 372.473051 220.238758 
L 374.25223 222.676926 
L 376.03141 228.403626 
L 377.810589 228.76674 
L 379.589769 227.382134 
L 381.368948 226.9229 
L 383.148128 225.842691 
L 384.927307 225.845618 
L 386.706487 223.94596 
L 388.485666 227.583432 
L 390.264846 229.395668 
L 392.044025 230.625188 
L 393.823205 232.669374 
L 395.602384 228.178561 
L 397.381564 224.088398 
L 399.160743 230.674709 
L 400.939923 229.946803 
L 402.719102 227.177365 
L 404.498282 228.991245 
L 406.277461 235.347273 
L 408.056641 234.361189 
L 409.83582 227.812507 
L 411.615 230.15945 
L 411.615 230.15945 
" clip-path="url(#p70e45d0d2c)" style="fill: none; stroke: #ff0000; stroke-width: 1.5; stroke-linecap: square"/>
   </g>
   <g id="line2d_47">
    <path d="M 57.549105 52.113047 
L 59.328284 75.132365 
L 61.107464 76.064214 
L 62.886643 72.377423 
L 64.665823 82.817851 
L 66.445002 84.310404 
L 68.224182 79.478118 
L 70.003361 88.913447 
L 71.782541 86.600123 
L 73.56172 79.047533 
L 75.3409 86.936321 
L 77.120079 88.436945 
L 78.899259 93.42156 
L 80.678438 88.308239 
L 82.457618 93.776202 
L 84.236797 102.650894 
L 86.015977 97.561446 
L 87.795156 100.375814 
L 89.574336 102.246564 
L 91.353515 101.289576 
L 93.132695 110.520329 
L 94.911875 113.264362 
L 96.691054 106.140975 
L 98.470234 109.015277 
L 100.249413 110.432745 
L 102.028593 104.723349 
L 103.807772 107.055647 
L 105.586952 104.053747 
L 107.366131 103.045528 
L 109.145311 111.749035 
L 110.92449 107.572076 
L 112.70367 98.803458 
L 114.482849 109.066058 
L 116.262029 108.076665 
L 118.041208 106.516428 
L 119.820388 101.395868 
L 121.599567 101.578126 
L 123.378747 107.539371 
L 125.157926 106.212333 
L 126.937106 102.854526 
L 128.716285 102.257886 
L 130.495465 107.393996 
L 132.274644 106.558933 
L 134.053824 109.971666 
L 135.833003 107.15784 
L 137.612183 111.779374 
L 139.391363 111.135575 
L 141.170542 113.962844 
L 146.508081 112.092968 
L 148.28726 118.649126 
L 150.06644 114.479799 
L 151.845619 118.539146 
L 153.624799 118.781057 
L 155.403978 115.082225 
L 157.183158 116.858236 
L 158.962337 114.36267 
L 160.741517 112.458784 
L 162.520696 116.325946 
L 164.299876 120.652002 
L 166.079055 117.371697 
L 167.858235 117.882445 
L 169.637414 120.455766 
L 171.416594 119.791413 
L 173.195773 121.757438 
L 174.974953 119.751081 
L 176.754132 120.483661 
L 178.533312 123.786508 
L 180.312491 125.161685 
L 182.091671 124.863994 
L 183.870851 125.56659 
L 185.65003 128.335943 
L 187.42921 124.682465 
L 189.208389 127.060445 
L 190.987569 127.128983 
L 192.766748 127.773914 
L 194.545928 125.003305 
L 196.325107 125.87079 
L 198.104287 124.767288 
L 199.883466 124.665676 
L 201.662646 126.799985 
L 203.441825 125.774115 
L 205.221005 128.235286 
L 207.000184 125.872955 
L 208.779364 125.159226 
L 210.558543 127.065785 
L 212.337723 126.138632 
L 214.116902 128.093342 
L 215.896082 125.572351 
L 217.675261 124.93893 
L 219.454441 126.699867 
L 221.23362 120.059719 
L 223.0128 122.579697 
L 224.791979 127.534469 
L 226.571159 131.949321 
L 228.350338 132.854626 
L 230.129518 132.420581 
L 231.908698 133.733583 
L 233.687877 135.347838 
L 235.467057 133.042764 
L 237.246236 136.089511 
L 239.025416 133.499603 
L 240.804595 132.137921 
L 242.583775 130.519926 
L 244.362954 133.287608 
L 246.142134 131.667941 
L 247.921313 132.133306 
L 249.700493 135.287737 
L 253.258852 131.496862 
L 255.038031 130.716595 
L 256.817211 124.264076 
L 258.59639 131.73049 
L 260.37557 132.593728 
L 263.933929 136.469773 
L 265.713108 135.805637 
L 267.492288 135.439591 
L 269.271467 133.680088 
L 271.050647 133.067012 
L 272.829826 130.358431 
L 274.609006 131.122414 
L 276.388186 129.44397 
L 278.167365 131.753028 
L 279.946545 131.909888 
L 281.725724 131.227791 
L 283.504904 132.353175 
L 285.284083 131.8062 
L 287.063263 130.903652 
L 288.842442 133.886284 
L 290.621622 135.633641 
L 292.400801 134.678705 
L 295.95916 135.16184 
L 297.73834 134.015359 
L 299.517519 131.782693 
L 301.296699 130.484769 
L 303.075878 130.827373 
L 304.855058 131.77569 
L 306.634237 130.400563 
L 308.413417 130.827979 
L 310.192596 130.458808 
L 311.971776 133.041988 
L 317.309314 132.082439 
L 320.867673 130.81112 
L 322.646853 129.703009 
L 324.426033 129.011097 
L 326.205212 127.205566 
L 327.984392 130.226926 
L 329.763571 131.463085 
L 331.542751 132.97121 
L 333.32193 132.18272 
L 335.10111 133.151412 
L 336.880289 135.045788 
L 338.659469 135.140097 
L 340.438648 132.396555 
L 342.217828 131.016208 
L 343.997007 132.963148 
L 345.776187 133.720745 
L 347.555366 133.607743 
L 349.334546 134.183344 
L 351.113725 132.619629 
L 352.892905 133.814007 
L 354.672084 136.0341 
L 356.451264 137.39561 
L 358.230443 137.730031 
L 361.788802 137.909515 
L 363.567982 137.726874 
L 365.347161 139.100382 
L 367.126341 139.106902 
L 368.905521 138.403286 
L 370.6847 139.064704 
L 372.46388 138.87108 
L 374.243059 138.173408 
L 376.022239 136.867373 
L 377.801418 138.642894 
L 379.580598 138.588794 
L 383.138957 139.779396 
L 384.918136 141.056479 
L 386.697316 140.484552 
L 388.476495 139.292774 
L 390.255675 137.624554 
L 392.034854 138.926411 
L 393.814034 138.498297 
L 395.593213 138.820541 
L 399.151572 141.532263 
L 400.930752 141.675219 
L 402.709931 141.29148 
L 404.489111 139.915904 
L 406.26829 139.410024 
L 408.04747 139.409222 
L 409.826649 140.421331 
L 411.605829 141.923598 
L 411.605829 141.923598 
" clip-path="url(#p70e45d0d2c)" style="fill: none; stroke-dasharray: 5.55,2.4; stroke-dashoffset: 0; stroke: #ff0000; stroke-width: 1.5"/>
   </g>
   <g id="patch_3">
    <path d="M 55.779096 246.04 
L 55.779096 10.8 
" style="fill: none; stroke: #000000; stroke-width: 0.8; stroke-linejoin: miter; stroke-linecap: square"/>
   </g>
   <g id="patch_4">
    <path d="M 411.615 246.04 
L 411.615 10.8 
" style="fill: none; stroke: #000000; stroke-width: 0.8; stroke-linejoin: miter; stroke-linecap: square"/>
   </g>
   <g id="patch_5">
    <path d="M 55.779096 246.04 
L 411.615 246.04 
" style="fill: none; stroke: #000000; stroke-width: 0.8; stroke-linejoin: miter; stroke-linecap: square"/>
   </g>
   <g id="patch_6">
    <path d="M 55.779096 10.8 
L 411.615 10.8 
" style="fill: none; stroke: #000000; stroke-width: 0.8; stroke-linejoin: miter; stroke-linecap: square"/>
   </g>
   <g id="legend_1">
    <g id="patch_7">
     <path d="M 219.204062 77.5125 
L 404.615 77.5125 
Q 406.615 77.5125 406.615 75.5125 
L 406.615 17.8 
Q 406.615 15.8 404.615 15.8 
L 219.204062 15.8 
Q 217.204062 15.8 217.204062 17.8 
L 217.204062 75.5125 
Q 217.204062 77.5125 219.204062 77.5125 
z
" style="fill: #ffffff; opacity: 0.8; stroke: #cccccc; stroke-linejoin: miter"/>
    </g>
    <g id="line2d_48">
     <path d="M 221.204062 23.898438 
L 231.204062 23.898438 
L 241.204062 23.898438 
" style="fill: none; stroke: #0000ff; stroke-width: 1.5; stroke-linecap: square"/>
    </g>
    <g id="text_15">
     <!-- not pre-trained, train loss -->
     <g transform="translate(249.204062 27.398438) scale(0.1 -0.1)">
      <defs>
       <path id="DejaVuSans-74" d="M 1172 4494 
L 1172 3500 
L 2356 3500 
L 2356 3053 
L 1172 3053 
L 1172 1153 
Q 1172 725 1289 603 
Q 1406 481 1766 481 
L 2356 481 
L 2356 0 
L 1766 0 
Q 1100 0 847 248 
Q 594 497 594 1153 
L 594 3053 
L 172 3053 
L 172 3500 
L 594 3500 
L 594 4494 
L 1172 4494 
z
" transform="scale(0.015625)"/>
       <path id="DejaVuSans-2d" d="M 313 2009 
L 1997 2009 
L 1997 1497 
L 313 1497 
L 313 2009 
z
" transform="scale(0.015625)"/>
       <path id="DejaVuSans-69" d="M 603 3500 
L 1178 3500 
L 1178 0 
L 603 0 
L 603 3500 
z
M 603 4863 
L 1178 4863 
L 1178 4134 
L 603 4134 
L 603 4863 
z
" transform="scale(0.015625)"/>
       <path id="DejaVuSans-2c" d="M 750 794 
L 1409 794 
L 1409 256 
L 897 -744 
L 494 -744 
L 750 256 
L 750 794 
z
" transform="scale(0.015625)"/>
       <path id="DejaVuSans-6c" d="M 603 4863 
L 1178 4863 
L 1178 0 
L 603 0 
L 603 4863 
z
" transform="scale(0.015625)"/>
      </defs>
      <use xlink:href="#DejaVuSans-6e"/>
      <use xlink:href="#DejaVuSans-6f" x="63.378906"/>
      <use xlink:href="#DejaVuSans-74" x="124.560547"/>
      <use xlink:href="#DejaVuSans-20" x="163.769531"/>
      <use xlink:href="#DejaVuSans-70" x="195.556641"/>
      <use xlink:href="#DejaVuSans-72" x="259.033203"/>
      <use xlink:href="#DejaVuSans-65" x="297.896484"/>
      <use xlink:href="#DejaVuSans-2d" x="359.419922"/>
      <use xlink:href="#DejaVuSans-74" x="395.503906"/>
      <use xlink:href="#DejaVuSans-72" x="434.712891"/>
      <use xlink:href="#DejaVuSans-61" x="475.826172"/>
      <use xlink:href="#DejaVuSans-69" x="537.105469"/>
      <use xlink:href="#DejaVuSans-6e" x="564.888672"/>
      <use xlink:href="#DejaVuSans-65" x="628.267578"/>
      <use xlink:href="#DejaVuSans-64" x="689.791016"/>
      <use xlink:href="#DejaVuSans-2c" x="753.267578"/>
      <use xlink:href="#DejaVuSans-20" x="785.054688"/>
      <use xlink:href="#DejaVuSans-74" x="816.841797"/>
      <use xlink:href="#DejaVuSans-72" x="856.050781"/>
      <use xlink:href="#DejaVuSans-61" x="897.164062"/>
      <use xlink:href="#DejaVuSans-69" x="958.443359"/>
      <use xlink:href="#DejaVuSans-6e" x="986.226562"/>
      <use xlink:href="#DejaVuSans-20" x="1049.605469"/>
      <use xlink:href="#DejaVuSans-6c" x="1081.392578"/>
      <use xlink:href="#DejaVuSans-6f" x="1109.175781"/>
      <use xlink:href="#DejaVuSans-73" x="1170.357422"/>
      <use xlink:href="#DejaVuSans-73" x="1222.457031"/>
     </g>
    </g>
    <g id="line2d_49">
     <path d="M 221.204062 38.576562 
L 231.204062 38.576562 
L 241.204062 38.576562 
" style="fill: none; stroke-dasharray: 5.55,2.4; stroke-dashoffset: 0; stroke: #0000ff; stroke-width: 1.5"/>
    </g>
    <g id="text_16">
     <!-- not pre-trained, validation loss -->
     <g transform="translate(249.204062 42.076562) scale(0.1 -0.1)">
      <defs>
       <path id="DejaVuSans-76" d="M 191 3500 
L 800 3500 
L 1894 563 
L 2988 3500 
L 3597 3500 
L 2284 0 
L 1503 0 
L 191 3500 
z
" transform="scale(0.015625)"/>
      </defs>
      <use xlink:href="#DejaVuSans-6e"/>
      <use xlink:href="#DejaVuSans-6f" x="63.378906"/>
      <use xlink:href="#DejaVuSans-74" x="124.560547"/>
      <use xlink:href="#DejaVuSans-20" x="163.769531"/>
      <use xlink:href="#DejaVuSans-70" x="195.556641"/>
      <use xlink:href="#DejaVuSans-72" x="259.033203"/>
      <use xlink:href="#DejaVuSans-65" x="297.896484"/>
      <use xlink:href="#DejaVuSans-2d" x="359.419922"/>
      <use xlink:href="#DejaVuSans-74" x="395.503906"/>
      <use xlink:href="#DejaVuSans-72" x="434.712891"/>
      <use xlink:href="#DejaVuSans-61" x="475.826172"/>
      <use xlink:href="#DejaVuSans-69" x="537.105469"/>
      <use xlink:href="#DejaVuSans-6e" x="564.888672"/>
      <use xlink:href="#DejaVuSans-65" x="628.267578"/>
      <use xlink:href="#DejaVuSans-64" x="689.791016"/>
      <use xlink:href="#DejaVuSans-2c" x="753.267578"/>
      <use xlink:href="#DejaVuSans-20" x="785.054688"/>
      <use xlink:href="#DejaVuSans-76" x="816.841797"/>
      <use xlink:href="#DejaVuSans-61" x="876.021484"/>
      <use xlink:href="#DejaVuSans-6c" x="937.300781"/>
      <use xlink:href="#DejaVuSans-69" x="965.083984"/>
      <use xlink:href="#DejaVuSans-64" x="992.867188"/>
      <use xlink:href="#DejaVuSans-61" x="1056.34375"/>
      <use xlink:href="#DejaVuSans-74" x="1117.623047"/>
      <use xlink:href="#DejaVuSans-69" x="1156.832031"/>
      <use xlink:href="#DejaVuSans-6f" x="1184.615234"/>
      <use xlink:href="#DejaVuSans-6e" x="1245.796875"/>
      <use xlink:href="#DejaVuSans-20" x="1309.175781"/>
      <use xlink:href="#DejaVuSans-6c" x="1340.962891"/>
      <use xlink:href="#DejaVuSans-6f" x="1368.746094"/>
      <use xlink:href="#DejaVuSans-73" x="1429.927734"/>
      <use xlink:href="#DejaVuSans-73" x="1482.027344"/>
     </g>
    </g>
    <g id="line2d_50">
     <path d="M 221.204062 53.254687 
L 231.204062 53.254687 
L 241.204062 53.254687 
" style="fill: none; stroke: #ff0000; stroke-width: 1.5; stroke-linecap: square"/>
    </g>
    <g id="text_17">
     <!-- pre-trained, train loss -->
     <g transform="translate(249.204062 56.754687) scale(0.1 -0.1)">
      <use xlink:href="#DejaVuSans-70"/>
      <use xlink:href="#DejaVuSans-72" x="63.476562"/>
      <use xlink:href="#DejaVuSans-65" x="102.339844"/>
      <use xlink:href="#DejaVuSans-2d" x="163.863281"/>
      <use xlink:href="#DejaVuSans-74" x="199.947266"/>
      <use xlink:href="#DejaVuSans-72" x="239.15625"/>
      <use xlink:href="#DejaVuSans-61" x="280.269531"/>
      <use xlink:href="#DejaVuSans-69" x="341.548828"/>
      <use xlink:href="#DejaVuSans-6e" x="369.332031"/>
      <use xlink:href="#DejaVuSans-65" x="432.710938"/>
      <use xlink:href="#DejaVuSans-64" x="494.234375"/>
      <use xlink:href="#DejaVuSans-2c" x="557.710938"/>
      <use xlink:href="#DejaVuSans-20" x="589.498047"/>
      <use xlink:href="#DejaVuSans-74" x="621.285156"/>
      <use xlink:href="#DejaVuSans-72" x="660.494141"/>
      <use xlink:href="#DejaVuSans-61" x="701.607422"/>
      <use xlink:href="#DejaVuSans-69" x="762.886719"/>
      <use xlink:href="#DejaVuSans-6e" x="790.669922"/>
      <use xlink:href="#DejaVuSans-20" x="854.048828"/>
      <use xlink:href="#DejaVuSans-6c" x="885.835938"/>
      <use xlink:href="#DejaVuSans-6f" x="913.619141"/>
      <use xlink:href="#DejaVuSans-73" x="974.800781"/>
      <use xlink:href="#DejaVuSans-73" x="1026.900391"/>
     </g>
    </g>
    <g id="line2d_51">
     <path d="M 221.204062 67.932813 
L 231.204062 67.932813 
L 241.204062 67.932813 
" style="fill: none; stroke-dasharray: 5.55,2.4; stroke-dashoffset: 0; stroke: #ff0000; stroke-width: 1.5"/>
    </g>
    <g id="text_18">
     <!-- pre-trained, validation loss -->
     <g transform="translate(249.204062 71.432813) scale(0.1 -0.1)">
      <use xlink:href="#DejaVuSans-70"/>
      <use xlink:href="#DejaVuSans-72" x="63.476562"/>
      <use xlink:href="#DejaVuSans-65" x="102.339844"/>
      <use xlink:href="#DejaVuSans-2d" x="163.863281"/>
      <use xlink:href="#DejaVuSans-74" x="199.947266"/>
      <use xlink:href="#DejaVuSans-72" x="239.15625"/>
      <use xlink:href="#DejaVuSans-61" x="280.269531"/>
      <use xlink:href="#DejaVuSans-69" x="341.548828"/>
      <use xlink:href="#DejaVuSans-6e" x="369.332031"/>
      <use xlink:href="#DejaVuSans-65" x="432.710938"/>
      <use xlink:href="#DejaVuSans-64" x="494.234375"/>
      <use xlink:href="#DejaVuSans-2c" x="557.710938"/>
      <use xlink:href="#DejaVuSans-20" x="589.498047"/>
      <use xlink:href="#DejaVuSans-76" x="621.285156"/>
      <use xlink:href="#DejaVuSans-61" x="680.464844"/>
      <use xlink:href="#DejaVuSans-6c" x="741.744141"/>
      <use xlink:href="#DejaVuSans-69" x="769.527344"/>
      <use xlink:href="#DejaVuSans-64" x="797.310547"/>
      <use xlink:href="#DejaVuSans-61" x="860.787109"/>
      <use xlink:href="#DejaVuSans-74" x="922.066406"/>
      <use xlink:href="#DejaVuSans-69" x="961.275391"/>
      <use xlink:href="#DejaVuSans-6f" x="989.058594"/>
      <use xlink:href="#DejaVuSans-6e" x="1050.240234"/>
      <use xlink:href="#DejaVuSans-20" x="1113.619141"/>
      <use xlink:href="#DejaVuSans-6c" x="1145.40625"/>
      <use xlink:href="#DejaVuSans-6f" x="1173.189453"/>
      <use xlink:href="#DejaVuSans-73" x="1234.371094"/>
      <use xlink:href="#DejaVuSans-73" x="1286.470703"/>
     </g>
    </g>
   </g>
  </g>
 </g>
 <defs>
  <clipPath id="p70e45d0d2c">
   <rect x="55.779096" y="10.8" width="355.835904" height="235.24"/>
  </clipPath>
 </defs>
</svg>
